<svg xmlns="http://www.w3.org/2000/svg" version="1.1"><rect x="0" y="0" width="240" height="260" fill="white" /><line x1="0" y1="0" x2="0" y2="240" style="stroke:black; stroke-width:2" /><line x1="40" y1="0" x2="40" y2="240" style="stroke:black; stroke-width:0.5" /><line x1="80" y1="0" x2="80" y2="240" style="stroke:black; stroke-width:0.5" /><line x1="120" y1="0" x2="120" y2="240" style="stroke:black; stroke-width:2" /><line x1="160" y1="0" x2="160" y2="240" style="stroke:black; stroke-width:0.5" /><line x1="200" y1="0" x2="200" y2="240" style="stroke:black; stroke-width:0.5" /><line x1="240" y1="0" x2="240" y2="240" style="stroke:black; stroke-width:2" /><line x1="0" y1="0" x2="240" y2="0" style="stroke:black; stroke-width:2" /><line x1="0" y1="40" x2="240" y2="40" style="stroke:black; stroke-width:0.5" /><line x1="0" y1="80" x2="240" y2="80" style="stroke:black; stroke-width:2" /><line x1="0" y1="120" x2="240" y2="120" style="stroke:black; stroke-width:0.5" /><line x1="0" y1="160" x2="240" y2="160" style="stroke:black; stroke-width:2" /><line x1="0" y1="200" x2="240" y2="200" style="stroke:black; stroke-width:0.5" /><line x1="0" y1="240" x2="240" y2="240" style="stroke:black; stroke-width:2" /><text x="20.0" y="20.0" style="font-size:20; text-anchor:middle; dominant-baseline:middle"> 5 </text><text x="60.0" y="20.0" style="font-size:20; text-anchor:middle; dominant-baseline:middle"> 1 </text><text x="100.0" y="20.0" style="font-size:20; text-anchor:middle; dominant-baseline:middle"> 6 </text><text x="140.0" y="20.0" style="font-size:20; text-anchor:middle; dominant-baseline:middle"> 2 </text><text x="180.0" y="20.0" style="font-size:20; text-anchor:middle; dominant-baseline:middle"> 4 </text><text x="220.0" y="20.0" style="font-size:20; text-anchor:middle; dominant-baseline:middle"> 3 </text><text x="20.0" y="60.0" style="font-size:20; text-anchor:middle; dominant-baseline:middle"> 3 </text><text x="60.0" y="60.0" style="font-size:20; text-anchor:middle; dominant-baseline:middle"> 2 </text><text x="100.0" y="60.0" style="font-size:20; text-anchor:middle; dominant-baseline:middle"> 4 </text><text x="140.0" y="60.0" style="font-size:20; text-anchor:middle; dominant-baseline:middle"> 1 </text><text x="180.0" y="60.0" style="font-size:20; text-anchor:middle; dominant-baseline:middle"> 5 </text><text x="220.0" y="60.0" style="font-size:20; text-anchor:middle; dominant-baseline:middle"> 6 </text><text x="20.0" y="100.0" style="font-size:20; text-anchor:middle; dominant-baseline:middle"> 2 </text><text x="60.0" y="100.0" style="font-size:20; text-anchor:middle; dominant-baseline:middle"> 5 </text><text x="100.0" y="100.0" style="font-size:20; text-anchor:middle; dominant-baseline:middle"> 3 </text><text x="140.0" y="100.0" style="font-size:20; text-anchor:middle; dominant-baseline:middle"> 4 </text><text x="180.0" y="100.0" style="font-size:20; text-anchor:middle; dominant-baseline:middle"> 6 </text><text x="220.0" y="100.0" style="font-size:20; text-anchor:middle; dominant-baseline:middle"> 1 </text><text x="20.0" y="140.0" style="font-size:20; text-anchor:middle; dominant-baseline:middle"> 6 </text><text x="60.0" y="140.0" style="font-size:20; text-anchor:middle; dominant-baseline:middle"> 4 </text><text x="100.0" y="140.0" style="font-size:20; text-anchor:middle; dominant-baseline:middle"> 1 </text><text x="140.0" y="140.0" style="font-size:20; text-anchor:middle; dominant-baseline:middle"> 3 </text><text x="180.0" y="140.0" style="font-size:20; text-anchor:middle; dominant-baseline:middle"> 2 </text><text x="220.0" y="140.0" style="font-size:20; text-anchor:middle; dominant-baseline:middle"> 5 </text><text x="20.0" y="180.0" style="font-size:20; text-anchor:middle; dominant-baseline:middle"> 4 </text><text x="60.0" y="180.0" style="font-size:20; text-anchor:middle; dominant-baseline:middle"> 3 </text><text x="100.0" y="180.0" style="font-size:20; text-anchor:middle; dominant-baseline:middle"> 5 </text><text x="140.0" y="180.0" style="font-size:20; text-anchor:middle; dominant-baseline:middle"> 6 </text><text x="180.0" y="180.0" style="font-size:20; text-anchor:middle; dominant-baseline:middle"> 1 </text><text x="220.0" y="180.0" style="font-size:20; text-anchor:middle; dominant-baseline:middle"> 2 </text><text x="20.0" y="220.0" style="font-size:20; text-anchor:middle; dominant-baseline:middle"> 1 </text><text x="60.0" y="220.0" style="font-size:20; text-anchor:middle; dominant-baseline:middle"> 6 </text><text x="100.0" y="220.0" style="font-size:20; text-anchor:middle; dominant-baseline:middle"> 2 </text><text x="140.0" y="220.0" style="font-size:20; text-anchor:middle; dominant-baseline:middle"> 5 </text><text x="180.0" y="220.0" style="font-size:20; text-anchor:middle; dominant-baseline:middle"> 3 </text><text x="220.0" y="220.0" style="font-size:20; text-anchor:middle; dominant-baseline:middle"> 4 </text><text x="5" y="255" style="font-size:10; fill:gray"> ID: CAEK9NNV - Medium / Mittel </text></svg>